<svg xmlns="http://www.w3.org/2000/svg" viewBox="0 0 100 100" preserveAspectRatio="xMidYMid" width="200" height="200" style="shape-rendering: auto; display: block; background: transparent;" xmlns:xlink="http://www.w3.org/1999/xlink"><g><g transform="rotate(0 50 50)">
  <rect fill="#fe718d" height="12" width="6" ry="6" rx="3" y="24" x="47">
    <animate repeatCount="indefinite" begin="-1.7295597484276728s" dur="1.8867924528301885s" keyTimes="0;1" values="1;0" attributeName="opacity"></animate>
  </rect>
</g><g transform="rotate(30 50 50)">
  <rect fill="#fe718d" height="12" width="6" ry="6" rx="3" y="24" x="47">
    <animate repeatCount="indefinite" begin="-1.572327044025157s" dur="1.8867924528301885s" keyTimes="0;1" values="1;0" attributeName="opacity"></animate>
  </rect>
</g><g transform="rotate(60 50 50)">
  <rect fill="#fe718d" height="12" width="6" ry="6" rx="3" y="24" x="47">
    <animate repeatCount="indefinite" begin="-1.4150943396226414s" dur="1.8867924528301885s" keyTimes="0;1" values="1;0" attributeName="opacity"></animate>
  </rect>
</g><g transform="rotate(90 50 50)">
  <rect fill="#fe718d" height="12" width="6" ry="6" rx="3" y="24" x="47">
    <animate repeatCount="indefinite" begin="-1.2578616352201257s" dur="1.8867924528301885s" keyTimes="0;1" values="1;0" attributeName="opacity"></animate>
  </rect>
</g><g transform="rotate(120 50 50)">
  <rect fill="#fe718d" height="12" width="6" ry="6" rx="3" y="24" x="47">
    <animate repeatCount="indefinite" begin="-1.10062893081761s" dur="1.8867924528301885s" keyTimes="0;1" values="1;0" attributeName="opacity"></animate>
  </rect>
</g><g transform="rotate(150 50 50)">
  <rect fill="#fe718d" height="12" width="6" ry="6" rx="3" y="24" x="47">
    <animate repeatCount="indefinite" begin="-0.9433962264150942s" dur="1.8867924528301885s" keyTimes="0;1" values="1;0" attributeName="opacity"></animate>
  </rect>
</g><g transform="rotate(180 50 50)">
  <rect fill="#fe718d" height="12" width="6" ry="6" rx="3" y="24" x="47">
    <animate repeatCount="indefinite" begin="-0.7861635220125786s" dur="1.8867924528301885s" keyTimes="0;1" values="1;0" attributeName="opacity"></animate>
  </rect>
</g><g transform="rotate(210 50 50)">
  <rect fill="#fe718d" height="12" width="6" ry="6" rx="3" y="24" x="47">
    <animate repeatCount="indefinite" begin="-0.6289308176100629s" dur="1.8867924528301885s" keyTimes="0;1" values="1;0" attributeName="opacity"></animate>
  </rect>
</g><g transform="rotate(240 50 50)">
  <rect fill="#fe718d" height="12" width="6" ry="6" rx="3" y="24" x="47">
    <animate repeatCount="indefinite" begin="-0.4716981132075471s" dur="1.8867924528301885s" keyTimes="0;1" values="1;0" attributeName="opacity"></animate>
  </rect>
</g><g transform="rotate(270 50 50)">
  <rect fill="#fe718d" height="12" width="6" ry="6" rx="3" y="24" x="47">
    <animate repeatCount="indefinite" begin="-0.31446540880503143s" dur="1.8867924528301885s" keyTimes="0;1" values="1;0" attributeName="opacity"></animate>
  </rect>
</g><g transform="rotate(300 50 50)">
  <rect fill="#fe718d" height="12" width="6" ry="6" rx="3" y="24" x="47">
    <animate repeatCount="indefinite" begin="-0.15723270440251572s" dur="1.8867924528301885s" keyTimes="0;1" values="1;0" attributeName="opacity"></animate>
  </rect>
</g><g transform="rotate(330 50 50)">
  <rect fill="#fe718d" height="12" width="6" ry="6" rx="3" y="24" x="47">
    <animate repeatCount="indefinite" begin="0s" dur="1.8867924528301885s" keyTimes="0;1" values="1;0" attributeName="opacity"></animate>
  </rect>
</g><g></g></g><!-- [ldio] generated by https://loading.io --></svg>